<?xml version="1.0" encoding="utf-8"?>
<!-- Generator: Adobe Illustrator 21.0.2, SVG Export Plug-In . SVG Version: 6.00 Build 0)  -->
<svg version="1.1" id="Capa_2" xmlns="http://www.w3.org/2000/svg" xmlns:xlink="http://www.w3.org/1999/xlink" x="0px" y="0px"
	 viewBox="0 0 376.3 379.8" style="enable-background:new 0 0 376.3 379.8;" xml:space="preserve">
<style type="text/css">
	.st0{fill:#0E5289;stroke:#FFFFFF;stroke-miterlimit:10;}
	.st1{fill:#0E5289;}
	.st2{fill:#FFFFFF;}
</style>
<g>
	<polygon class="st0" points="26.5,319.8 107.5,348 127.6,196.2 60.8,154.2 	"/>
	<polygon class="st0" points="142,226.8 131,348 228.7,329.3 225.3,204 	"/>
	<polygon class="st0" points="256.1,327.8 349.8,348 314.4,160.5 248.1,146.1 	"/>
	<g>
		<path class="st1" d="M181.3,249.1c-0.2-0.2-18.2-19.7-36-47.1c-24-37-36.1-70-36.1-98.2c0-41.3,33.6-75,75-75
			c41.3,0,75,33.6,75,75c0,28.6-12.4,61.7-36.8,98.6c-18.1,27.3-36.5,46.6-36.6,46.8l-2.2,2.3L181.3,249.1z M184.2,79
			c-13.7,0-24.8,11.1-24.8,24.8s11.1,24.8,24.8,24.8s24.8-11.1,24.8-24.8S197.9,79,184.2,79z"/>
		<path class="st2" d="M184.2,31.8c39.7,0,72,32.2,72,72c0,67.4-72.6,143.3-72.6,143.3s-71.3-76.7-71.3-143.3
			C112.2,64,144.4,31.8,184.2,31.8 M184.2,131.6c15.4,0,27.8-12.4,27.8-27.8c0-15.4-12.4-27.8-27.8-27.8
			c-15.4,0-27.8,12.4-27.8,27.8C156.4,119.1,168.8,131.6,184.2,131.6 M184.2,25.8c-43,0-78,35-78,78c0,28.8,12.3,62.4,36.6,99.9
			c17.9,27.6,35.6,46.7,36.3,47.5l4.3,4.7l4.4-4.6c0.8-0.8,18.7-19.7,37-47.2c24.8-37.3,37.3-71.1,37.3-100.2
			C262.1,60.8,227.2,25.8,184.2,25.8L184.2,25.8z M184.2,125.6c-12,0-21.8-9.8-21.8-21.8c0-12,9.8-21.8,21.8-21.8
			c12,0,21.8,9.8,21.8,21.8C206,115.8,196.2,125.6,184.2,125.6L184.2,125.6z"/>
	</g>
</g>
</svg>
